<svg width="90" height="214" viewBox="0 0 90 214" fill="none" xmlns="http://www.w3.org/2000/svg">
<path d="M53.1807 150.4L47.5947 165.673H46.7314L41.1455 149.867C41.1328 149.816 41.1074 149.74 41.0693 149.651C40.4727 148.014 39.4316 147.188 37.9717 147.188H37.8701V146.224H46.2109V147.188H45.7285C44.916 147.188 44.3447 147.265 44.0146 147.417C43.6719 147.582 43.5068 147.836 43.5068 148.204C43.5068 148.369 43.5957 148.712 43.7734 149.232C43.8115 149.321 43.8369 149.397 43.8496 149.448L47.9883 161.28L51.708 151.353C52.127 150.223 52.3301 149.372 52.3301 148.725C52.3301 147.76 51.708 147.354 49.7783 147.188V146.224H56.5957V147.188C55.0723 147.277 53.9424 148.306 53.2188 150.286L53.1807 150.4Z" fill="black"/>
<path d="M62.0801 165H56.0498V164.035H56.4434C57.6748 164.035 58.1318 163.654 58.1318 162.588V155.098C58.1318 154.019 57.6748 153.612 56.4053 153.612C56.3672 153.612 56.2783 153.612 56.1641 153.625C56.0498 153.638 55.9609 153.638 55.8975 153.638V152.647C57.1162 152.559 58.5889 152.419 60.2012 152.229V162.588C60.2012 163.642 60.6455 164.035 61.8516 164.035H62.0801V165ZM57.5605 147.811C57.5605 146.909 58.2588 146.198 59.1729 146.198C60.0742 146.198 60.7852 146.909 60.7852 147.811C60.7852 148.725 60.0869 149.397 59.1729 149.397C58.2461 149.397 57.5605 148.725 57.5605 147.811Z" fill="black"/>
<path d="M69.0117 165H63.0576V164.035H63.4512C64.708 164.035 65.1396 163.654 65.1396 162.588V149.169C65.1396 147.557 64.7969 147.265 63.2607 147.265H62.9053V146.312C64.416 146.224 65.8887 146.084 67.2217 145.919V162.588C67.2217 163.642 67.6406 164.035 68.8086 164.035H69.0117V165Z" fill="black"/>
<path d="M76.1211 165H70.167V164.035H70.5605C71.8174 164.035 72.249 163.654 72.249 162.588V149.169C72.249 147.557 71.9062 147.265 70.3701 147.265H70.0146V146.312C71.5254 146.224 72.998 146.084 74.3311 145.919V162.588C74.3311 163.642 74.75 164.035 75.918 164.035H76.1211V165Z" fill="black"/>
<path d="M85.1221 162.74H85.0459C84.2969 164.505 82.8115 165.444 80.7803 165.444C78.8887 165.444 77.6445 164.327 77.6445 162.639C77.6445 161.521 78.1904 160.595 79.2695 159.846C80.3486 159.097 82.291 158.36 85.1221 157.611V156.291C85.1221 153.663 84.3984 153.016 82.2148 153.016C81.6182 153.016 81.1357 153.092 80.7549 153.244C80.374 153.396 80.1836 153.574 80.1836 153.79C80.1836 153.841 80.374 154.019 80.7549 154.336C81.1357 154.653 81.3262 155.085 81.3262 155.618C81.3262 156.481 80.7041 157.091 79.8281 157.091C78.8252 157.091 78.1904 156.443 78.1904 155.428C78.1904 153.587 80.0566 152.292 82.8115 152.292C85.998 152.292 87.1533 153.358 87.1533 156.545V162.55C87.1533 163.058 87.2041 163.413 87.3184 163.604C87.4199 163.807 87.5977 163.908 87.8516 163.908C88.1436 163.908 88.3594 163.718 88.5117 163.324C88.6514 162.943 88.7402 162.359 88.7656 161.572H89.3369V161.674C89.3369 164.073 88.5244 165.444 87.1025 165.444C85.8838 165.444 85.2363 164.556 85.1221 162.74ZM85.0713 160.341V158.424C83.3574 159.021 82.126 159.63 81.3516 160.252C80.5771 160.874 80.1836 161.572 80.1836 162.347C80.1836 163.464 80.8184 164.086 81.9355 164.086C83.7002 164.086 85.0713 162.461 85.0713 160.341Z" fill="black"/>
<path d="M3.22461 182.843C3.22461 186.804 4.15137 188.505 6.24609 188.505C8.32812 188.505 9.22949 186.816 9.22949 182.843C9.22949 178.844 8.32812 177.143 6.24609 177.143C4.15137 177.143 3.22461 178.869 3.22461 182.843ZM0.787109 182.843C0.787109 181.078 1.3457 179.44 2.37402 178.209C3.42773 176.952 4.84961 176.229 6.27148 176.229C7.62988 176.229 9.02637 176.952 10.0928 178.184C11.1084 179.39 11.7051 181.104 11.7051 182.843C11.7051 184.557 11.1211 186.22 10.0928 187.489C9.06445 188.759 7.73145 189.419 6.24609 189.419C3.25 189.419 0.787109 186.499 0.787109 182.843Z" fill="black"/>
<path d="M20.1094 189H13.0127V188.035H13.3682C15.1455 188.035 15.4248 187.807 15.4248 186.296V177.587H13.0635V176.546H15.4248C15.4248 176.482 15.4248 176.381 15.4121 176.241C15.3994 176.102 15.3994 176.013 15.3994 175.949C15.3994 172.204 17.2148 169.843 20.0078 169.843C21.7217 169.843 22.7881 170.795 22.7881 172.331C22.7881 173.385 22.1533 174.02 21.1758 174.02C20.2744 174.02 19.7412 173.499 19.7412 172.648C19.7412 172.217 19.8936 171.836 20.1855 171.493C20.4775 171.163 20.6299 170.985 20.6299 170.96C20.6299 170.858 20.5537 170.77 20.4014 170.693C20.2363 170.63 20.0332 170.592 19.792 170.592C18.2305 170.592 17.3799 172.204 17.3799 175.2C17.3799 175.34 17.3799 175.505 17.3926 175.683C17.3926 175.873 17.4053 176.152 17.4307 176.546H20.5537V177.587H17.4814V186.347C17.4814 187.756 17.8369 188.061 19.3984 188.061C19.4619 188.061 19.5762 188.061 19.7412 188.048C19.8936 188.035 20.0205 188.035 20.1094 188.035V189Z" fill="black"/>
<path d="M31.9668 179.745C31.9668 185.89 33.5283 188.683 36.9307 188.683C40.3203 188.683 41.8691 185.902 41.8691 179.745C41.8691 173.613 40.3203 170.82 36.9307 170.82C33.541 170.82 31.9668 173.651 31.9668 179.745ZM28.8945 179.771C28.8945 177.13 29.707 174.718 31.2432 172.826C32.8174 170.909 34.8359 169.868 36.9561 169.868C39.1777 169.868 41.0947 170.833 42.6309 172.725C44.1162 174.553 44.9414 177.066 44.9414 179.771C44.9414 182.373 44.0908 184.874 42.5801 186.766C41.0439 188.657 39.0889 189.647 36.9053 189.647C34.6836 189.647 32.8428 188.759 31.3193 186.969C29.6562 185.052 28.8945 182.805 28.8945 179.771Z" fill="black"/>
<path d="M52.4824 189H46.8838V188.035H47.0488C48.5088 188.035 48.8135 187.845 48.8135 186.118V179.301C48.8135 177.917 48.5215 177.638 47.252 177.638H46.7568L46.7695 176.647C46.9473 176.635 47.4297 176.584 48.2041 176.508C48.9785 176.444 49.8672 176.368 50.8447 176.292V179.669H50.9463C51.8604 177.396 53.1553 176.292 54.8691 176.292C57.0527 176.292 58.2207 177.803 58.2207 180.634V186.169C58.2207 187.934 58.4746 188.035 59.8076 188.035V189H54.5898V188.035C55.9229 187.984 56.2275 187.781 56.2275 186.118V180.71C56.2275 178.59 55.6943 177.765 54.4248 177.765C52.3428 177.765 50.7305 180.253 50.7305 183.668V186.093C50.7305 187.781 51.0605 188.035 52.3428 188.035H52.4824V189Z" fill="black"/>
<path d="M71.5889 185.75L72.3125 186.194C71.3984 188.378 69.6338 189.546 67.2471 189.546C63.6416 189.546 61.3438 187.07 61.3438 183.173C61.3438 179.098 63.7305 176.203 67.0312 176.203C70.0654 176.203 72.0713 178.628 72.0713 182.348C72.0713 182.741 72.0586 182.906 72.0459 183.071H63.7305V183.465C63.7305 186.601 65.1777 188.429 67.6533 188.429C69.3164 188.429 70.5225 187.616 71.5889 185.75ZM63.7305 182.081H67.4248C68.542 182.081 69.2021 182.018 69.418 181.878C69.6338 181.738 69.7354 181.434 69.7354 180.964C69.7354 178.564 68.6943 177.117 67.0059 177.117C65.0381 177.117 63.7812 178.996 63.7305 182.081Z" fill="black"/>
<path d="M74.5342 177.739L73.9375 177.27C74.877 176.292 75.4736 175.581 75.7402 175.149C75.9941 174.718 76.1211 174.299 76.1211 173.893C76.1211 173.499 75.8418 173.169 75.626 173.169C74.7119 173.169 74.0898 172.534 74.0898 171.582C74.0898 170.503 74.75 169.843 75.8545 169.843C76.9844 169.843 77.7334 170.846 77.7334 172.433C77.7334 174.172 76.5781 176.102 74.5342 177.739Z" fill="black"/>
<path d="M80.5518 189.419H79.9043V184.138H80.6279C81.6436 187.045 83.3447 188.683 85.3379 188.683C86.874 188.683 87.915 187.794 87.915 186.474C87.915 185.268 87.166 184.557 85.3887 184.087L83.5225 183.566C81.0723 182.894 80.0566 181.751 80.0566 179.72C80.0566 177.676 81.3643 176.317 83.332 176.317C83.9287 176.317 84.5635 176.444 85.249 176.698C85.9346 176.965 86.3535 177.092 86.5059 177.092C87.0518 177.092 87.4072 176.825 87.5977 176.317H88.1436V180.964H87.5469C86.9502 178.615 85.3125 177.117 83.3828 177.117C82.0752 177.117 81.1992 177.892 81.1992 179.021C81.1992 179.974 81.8721 180.634 83.2305 181.04L85.9346 181.878C88.3213 182.589 89.21 183.604 89.21 185.496C89.21 187.87 87.6104 189.419 85.1602 189.419C84.5254 189.419 83.8018 189.254 83.002 188.937C82.1895 188.619 81.6943 188.454 81.5166 188.454C80.9961 188.454 80.6406 188.81 80.5518 189.419Z" fill="black"/>
<path d="M16.9863 203.745C16.9863 209.89 18.5479 212.683 21.9502 212.683C25.3398 212.683 26.8887 209.902 26.8887 203.745C26.8887 197.613 25.3398 194.82 21.9502 194.82C18.5605 194.82 16.9863 197.651 16.9863 203.745ZM13.9141 203.771C13.9141 201.13 14.7266 198.718 16.2627 196.826C17.8369 194.909 19.8555 193.868 21.9756 193.868C24.1973 193.868 26.1143 194.833 27.6504 196.725C29.1357 198.553 29.9609 201.066 29.9609 203.771C29.9609 206.373 29.1104 208.874 27.5996 210.766C26.0635 212.657 24.1084 213.647 21.9248 213.647C19.7031 213.647 17.8623 212.759 16.3389 210.969C14.6758 209.052 13.9141 206.805 13.9141 203.771Z" fill="black"/>
<path d="M40.4854 204.862L37.3369 213.419H36.5625L32.7412 202.831C32.4873 202.171 32.3096 201.879 32.043 201.688C31.8018 201.536 31.3447 201.435 30.6338 201.371V200.546H36.2197V201.384C35.623 201.384 35.2041 201.422 34.9883 201.498C34.7725 201.587 34.6582 201.739 34.6582 201.955C34.6582 202.057 34.7344 202.323 34.8486 202.628L37.5781 210.347L40.041 203.821L39.6348 202.387C39.4316 201.676 38.9238 201.384 37.8574 201.384H37.5527V200.546H43.3418V201.384H43.0625C42.1484 201.384 41.793 201.6 41.793 202.158C41.793 202.425 41.8564 202.755 41.9707 203.098L44.3574 210.448L46.6807 204.088C46.8711 203.542 46.9854 203.009 46.9854 202.653C46.9854 201.803 46.3506 201.384 45.1191 201.384H44.9033V200.546H50.0322V201.371C48.877 201.473 48.1533 202.146 47.6328 203.618L44.1035 213.419H43.2148L40.4854 204.862Z" fill="black"/>
<path d="M56.0371 213H50.4385V212.035H50.6035C52.0635 212.035 52.3682 211.845 52.3682 210.118V203.301C52.3682 201.917 52.0762 201.638 50.8066 201.638H50.3115L50.3242 200.647C50.502 200.635 50.9844 200.584 51.7588 200.508C52.5332 200.444 53.4219 200.368 54.3994 200.292V203.669H54.501C55.415 201.396 56.71 200.292 58.4238 200.292C60.6074 200.292 61.7754 201.803 61.7754 204.634V210.169C61.7754 211.934 62.0293 212.035 63.3623 212.035V213H58.1445V212.035C59.4775 211.984 59.7822 211.781 59.7822 210.118V204.71C59.7822 202.59 59.249 201.765 57.9795 201.765C55.8975 201.765 54.2852 204.253 54.2852 207.668V210.093C54.2852 211.781 54.6152 212.035 55.8975 212.035H56.0371V213Z" fill="black"/>
<path d="M6.24623 99.0035L5.88824 98.1635L4.22728 98.1635L4.22728 117.862L5.98311 117.862C6.62447 113.709 7.28987 110.186 9.176 108.995C10.3132 108.217 11.9805 108.071 14.2727 108.546L76.8477 124.188L14.0513 135.856C11.9565 136.32 10.3879 136.171 9.25569 135.402C7.18993 134.047 6.51315 130.237 5.98691 126.649L4.22854 126.649L4.22855 146L5.91354 146C7.06217 142.836 7.27089 140.885 13.8363 139.309L88.9197 124.661L88.9197 123.106L13.8262 104.742C8.16652 103.568 7.27722 101.453 6.24623 99.0035ZM23.8893 35.7059C36.2978 33.8403 57.1793 37.1138 69.2639 42.3796C71.4625 42.0736 73.4903 41.6386 75.3246 41.0756C61.603 33.0467 32.8506 28.4881 18.3347 32.9815C20.0424 33.9481 21.8957 34.8584 23.8893 35.7059ZM9.74398 5.60231C4.1071 9.51649 1.79972 16.3682 3.60363 22.7685C4.68394 26.4859 6.74844 29.4021 9.63899 32.1879C10.6902 33.1871 11.8135 34.1099 12.9862 34.9687C14.1462 35.8212 15.3239 36.5848 16.5965 37.3345C25.2631 42.3733 35.3718 45.0613 45.2743 46.6322C56.1331 48.296 69.9521 48.8664 80.0191 44.0558C85.3498 41.5508 89.3194 36.8994 89.8899 31.1322C92.4807 2.4554 25.4035 -7.30371 9.74145 5.59979L9.74398 5.60231ZM48.6708 5.37662C63.9256 8.00696 86.5617 14.9753 87.3865 29.4472C87.3675 33.1971 85.6319 36.3917 82.315 38.775C78.8312 41.196 75.1677 42.2805 70.8389 43.0641C62.1103 44.4996 53.049 43.7837 44.3369 42.3582C40.0169 41.6248 35.7349 40.682 31.5426 39.4232C20.9861 36.4005 4.35125 28.5708 5.69722 17.0026C7.96791 3.0434 30.2586 2.34006 48.6708 5.37662ZM69.2627 73.6704C71.4613 73.3645 73.4891 72.9295 75.3233 72.3665C61.6018 64.3376 32.8494 59.779 18.3334 64.2724C20.0412 65.239 21.8944 66.1492 23.8881 66.9968C36.2965 65.1312 57.178 68.4047 69.2627 73.6704ZM87.3852 60.7393C87.4054 67.1284 82.2429 71.0764 76.41 72.9834C70.8616 74.8853 63.4601 75.3529 57.2716 75.0558C51.4513 74.8013 45.6159 73.9914 39.9056 72.8179C34.5964 71.7108 29.3263 70.2276 24.3194 68.179C15.6668 64.8077 5.39235 57.798 5.62258 49.5785C5.54921 43.8213 10.0438 39.7191 15.4631 37.7407L15.4656 37.7419C14.2828 37.0223 13.1519 36.2638 12.064 35.4464C4.95339 39.1574 1.51889 46.4417 3.60363 54.0607C4.68394 57.7767 6.74844 60.6929 9.63899 63.4775L9.64152 63.48C10.6927 64.478 11.8161 65.402 12.9887 66.2608C14.1487 67.1133 15.3265 67.8769 16.5991 68.6266C25.2644 73.6654 35.3718 76.3534 45.2743 77.9244C56.1331 79.5893 69.9546 80.1598 80.0229 75.3479C80.6136 75.0596 81.1778 74.7549 81.7205 74.4339C93.623 67.3616 92.1277 52.8897 80.8464 44.6777C79.6459 45.2895 78.3442 45.8348 76.9501 46.31C83.7787 50.6041 87.389 55.5915 87.3877 60.7368L87.3852 60.7393ZM87.3852 92.0315C87.2802 118.668 2.73836 104.811 5.69595 79.5856C6.16148 74.5192 10.5802 70.7931 15.4669 69.0353C14.2828 68.3144 13.1507 67.5559 12.0627 66.7372C6.5005 69.6334 2.94203 74.9254 3.00654 81.0637C3.78073 98.1735 26.2448 105.902 43.8297 108.985C64.1571 112.263 87.322 110.833 89.8925 93.7177C90.6148 86.9638 87.4396 81.164 80.8451 75.971C79.6446 76.5829 78.3429 77.1282 76.9489 77.6034C83.7774 81.8975 87.3865 86.8848 87.3852 92.0315Z" fill="black"/>
</svg>
